# WaveFront *.obj file (generated by CINEMA 4D)

mtllib ./Pills.mtl

v -374.23965454101562 76.15963745117188 32.86094284057617
v -374.23965454101562 89.15891265869141 32.86094284057617
v -346.1466064453125 76.15963745117188 32.86094284057617
v -349.91036987304688 76.15963745117188 18.81442642211914
v -360.193115234375 76.15963745117188 8.531662940979
v -374.23965454101562 76.15963745117188 4.76791048049927
v -388.28616333007812 76.15963745117188 8.531662940979
v -398.56890869140625 76.15963745117188 18.81442642211914
v -402.33267211914062 76.15963745117188 32.86094284057617
v -398.56890869140625 76.15963745117188 46.9074592590332
v -388.28616333007812 76.15963745117188 57.19021987915039
v -374.23965454101562 76.15963745117188 60.95397567749023
v -360.193115234375 76.15963745117188 57.19021987915039
v -349.91036987304688 76.15963745117188 46.9074592590332
v -398.36376953125 76.15963745117188 46.78901672363281
v -346.1466064453125 88.57514190673828 32.86094284057617
v -402.09579467773438 76.15963745117188 32.86094284057617
v -349.91036987304688 88.57514190673828 18.81442642211914
v -398.36376953125 76.15963745117188 18.93286895751953
v -360.193115234375 88.57514190673828 8.531662940979
v -388.167724609375 76.15963745117188 8.7368106842041
v -374.23965454101562 88.57514190673828 4.76791048049927
v -374.23965454101562 76.15963745117188 5.00479507446289
v -388.28616333007812 88.57514190673828 8.531662940979
v -360.31155395507812 76.15963745117188 8.7368106842041
v -398.56890869140625 88.57514190673828 18.81442642211914
v -350.11550903320312 76.15963745117188 18.93286895751953
v -402.33267211914062 88.57514190673828 32.86094284057617
v -346.38348388671875 76.15963745117188 32.86094284057617
v -398.56890869140625 88.57514190673828 46.9074592590332
v -350.11550903320312 76.15963745117188 46.78901672363281
v -388.28616333007812 88.57514190673828 57.19021987915039
v -360.31155395507812 76.15963745117188 56.98507308959961
v -374.23965454101562 88.57514190673828 60.95397567749023
v -374.23965454101562 76.15963745117188 60.71709060668945
v -360.193115234375 88.57514190673828 57.19021987915039
v -388.167724609375 76.15963745117188 56.98507308959961
v -349.91036987304688 88.57514190673828 46.9074592590332
v -388.28616333007812 76.346923828125 57.19021987915039
v -374.23965454101562 76.346923828125 60.95397567749023
v -360.193115234375 76.346923828125 57.19021987915039
v -349.91036987304688 76.346923828125 46.9074592590332
v -346.1466064453125 76.346923828125 32.86094284057617
v -349.91036987304688 76.346923828125 18.81442642211914
v -360.193115234375 76.346923828125 8.531662940979
v -374.23965454101562 76.346923828125 4.76791048049927
v -388.28616333007812 76.346923828125 8.531662940979
v -398.56890869140625 76.346923828125 18.81442642211914
v -402.33267211914062 76.346923828125 32.86094284057617
v -398.56890869140625 76.346923828125 46.9074592590332
v -388.28616333007812 88.36161804199219 57.19021987915039
v -374.23965454101562 88.36161804199219 60.95397567749023
v -360.193115234375 88.36161804199219 57.19021987915039
v -349.91036987304688 88.36161804199219 46.9074592590332
v -346.1466064453125 88.36161804199219 32.86094284057617
v -349.91036987304688 88.36161804199219 18.81442642211914
v -360.193115234375 88.36161804199219 8.531662940979
v -374.23965454101562 88.36161804199219 4.76791048049927
v -388.28616333007812 88.36161804199219 8.531662940979
v -398.56890869140625 88.36161804199219 18.81442642211914
v -402.33267211914062 88.36161804199219 32.86094284057617
v -398.56890869140625 88.36161804199219 46.9074592590332
v -387.44183349609375 75.45710754394531 55.76638412475586
v -374.2203369140625 75.45710754394531 59.29872512817383
v -361.0040283203125 75.45710754394531 55.74708557128906
v -351.35348510742188 75.45710754394531 46.0965461730957
v -347.80184936523438 75.45710754394531 32.8802375793457
v -351.33419799804688 75.45710754394531 19.65876197814941
v -361.0040283203125 75.45710754394531 9.97479820251465
v -374.2203369140625 75.45710754394531 6.42315816879272
v -387.44183349609375 75.45710754394531 9.95550155639648
v -397.12579345703125 75.45710754394531 19.62533950805664
v -400.67742919921875 75.45710754394531 32.8802375793457
v -397.12579345703125 75.45710754394531 46.0965461730957
v -388.18911743164062 88.57917022705078 57.02213668823242
v -398.40084838867188 88.57917022705078 46.8104133605957
v -402.13858032226562 88.57917022705078 32.86094284057617
v -398.40084838867188 88.57917022705078 18.91147041320801
v -388.18911743164062 88.57917022705078 8.69974708557129
v -374.23965454101562 88.57917022705078 4.96199703216553
v -360.2901611328125 88.57917022705078 8.69974708557129
v -350.07843017578125 88.57917022705078 18.91147041320801
v -346.3406982421875 88.57917022705078 32.86094284057617
v -350.07843017578125 88.57917022705078 46.8104133605957
v -360.2901611328125 88.57917022705078 57.02213668823242
v -374.23965454101562 88.57917022705078 60.7598876953125
v -374.23965454101562 -5.40766620635986 32.86094284057617
v -351.84884643554688 -5.40766620635986 32.86094284057617
v -351.84884643554688 70.23137664794922 32.86094284057617
v -354.8486328125 -5.40766620635986 21.66554260253906
v -354.8486328125 70.23137664794922 21.66554260253906
v -363.04425048828125 -5.40766620635986 13.46994113922119
v -363.04425048828125 70.23137664794922 13.46994113922119
v -374.23965454101562 -5.40766620635986 10.47014236450195
v -374.23965454101562 70.23137664794922 10.47014236450195
v -385.43502807617188 -5.40766620635986 13.46994113922119
v -385.43502807617188 70.23137664794922 13.46994113922119
v -393.63064575195312 -5.40766620635986 21.66554260253906
v -393.63064575195312 70.23137664794922 21.66554260253906
v -396.63043212890625 -5.40766620635986 32.86094284057617
v -396.63043212890625 70.23137664794922 32.86094284057617
v -393.63064575195312 -5.40766620635986 44.05634307861328
v -393.63064575195312 70.23137664794922 44.05634307861328
v -385.43502807617188 -5.40766620635986 52.25194549560547
v -385.43502807617188 70.23137664794922 52.25194549560547
v -374.23965454101562 -5.40766620635986 55.25174331665039
v -374.23965454101562 70.23137664794922 55.25174331665039
v -363.04425048828125 -5.40766620635986 52.25194549560547
v -363.04425048828125 70.23137664794922 52.25194549560547
v -354.8486328125 -5.40766620635986 44.05634307861328
v -354.8486328125 70.23137664794922 44.05634307861328
v -347.66177368164062 70.41937255859375 32.86094284057617
v -351.2225341796875 70.41937255859375 19.57200241088867
v -351.2225341796875 70.41937255859375 46.14988327026367
v -360.95071411132812 70.41937255859375 9.84382343292236
v -360.95071411132812 70.41937255859375 55.87805938720703
v -374.23965454101562 70.41937255859375 6.28306293487549
v -374.23965454101562 70.41937255859375 59.43882369995117
v -387.52859497070312 70.41937255859375 9.84382343292236
v -387.52859497070312 70.41937255859375 55.87805938720703
v -397.25674438476562 70.41937255859375 19.57200241088867
v -400.8175048828125 70.41937255859375 32.86094284057617
v -397.25674438476562 70.41937255859375 46.14988327026367
v -363.04425048828125 -5.21358203887939 13.46994113922119
v -351.14996337890625 75.45412445068359 19.55256080627441
v -393.63064575195312 -5.21358203887939 21.66554260253906
v -347.58920288085938 75.45412445068359 32.88038635253906
v -374.23965454101562 70.13655853271484 55.25174331665039
v -360.8975830078125 75.45412445068359 9.79070663452148
v -360.8975830078125 75.45412445068359 55.93117904663086
v -351.16940307617188 75.45412445068359 46.20299911499023
v -385.43502807617188 70.13655853271484 52.25194549560547
v -374.22018432617188 75.45412445068359 6.21050357818604
v -374.22018432617188 75.45412445068359 59.51138305664062
v -363.32162475585938 -5.40766620635986 51.77151870727539
v -393.63064575195312 70.13655853271484 44.05634307861328
v -387.54803466796875 75.45412445068359 9.77126407623291
v -387.54803466796875 75.45412445068359 55.95061874389648
v -385.15765380859375 -5.40766620635986 51.77151870727539
v -396.63043212890625 70.13655853271484 32.86094284057617
v -397.30987548828125 75.45412445068359 19.51888465881348
v -397.30987548828125 75.45412445068359 46.20299911499023
v -396.07568359375 -5.40766620635986 32.86094284057617
v -393.63064575195312 70.13655853271484 21.66554260253906
v -363.32162475585938 -5.40766620635986 13.95036697387695
v -400.89007568359375 75.45412445068359 32.88038635253906
v -385.15765380859375 -5.40766620635986 13.95036697387695
v -374.23965454101562 -5.21358203887939 10.47014236450195
v -354.86297607421875 75.51427459716797 21.69288635253906
v -396.63043212890625 -5.21358203887939 32.86094284057617
v -351.87493896484375 75.51427459716797 32.8774528503418
v -351.84884643554688 -5.21358203887939 32.86094284057617
v -363.04299926757812 75.51427459716797 13.5007905960083
v -363.04299926757812 75.51427459716797 52.22109222412109
v -354.87948608398438 75.51427459716797 44.05759429931641
v -385.43502807617188 70.13655853271484 13.46994113922119
v -374.22314453125 75.51427459716797 10.4962329864502
v -374.22314453125 75.51427459716797 55.22565078735352
v -374.23965454101562 -5.40766620635986 54.69699478149414
v -374.23965454101562 70.13655853271484 10.47014236450195
v -385.40768432617188 75.51427459716797 13.48428058624268
v -385.40768432617188 75.51427459716797 52.23760223388672
v -393.15020751953125 -5.40766620635986 43.77896881103516
v -363.04425048828125 70.13655853271484 13.46994113922119
v -393.59979248046875 75.51427459716797 21.6642894744873
v -393.59979248046875 75.51427459716797 44.05759429931641
v -393.15020751953125 -5.40766620635986 21.94291687011719
v -354.8486328125 70.13655853271484 21.66554260253906
v -355.32907104492188 -5.40766620635986 21.94291687011719
v -396.60433959960938 75.51427459716797 32.8774528503418
v -374.23965454101562 -5.40766620635986 11.0248908996582
v -385.43502807617188 -5.21358203887939 13.46994113922119
v -354.86297607421875 77.59734344482422 21.69288635253906
v -393.63064575195312 -5.21358203887939 44.05634307861328
v -351.87493896484375 77.59734344482422 32.8774528503418
v -354.8486328125 -5.21358203887939 21.66554260253906
v -363.04299926757812 77.59734344482422 13.5007905960083
v -385.43502807617188 -5.21358203887939 52.25194549560547
v -354.87948608398438 77.59734344482422 44.05759429931641
v -351.84884643554688 70.13655853271484 32.86094284057617
v -374.22314453125 77.59734344482422 10.4962329864502
v -374.23965454101562 -5.21358203887939 55.25174331665039
v -363.07159423828125 77.59734344482422 52.23760223388672
v -354.8486328125 70.13655853271484 44.05634307861328
v -385.40768432617188 77.59734344482422 13.48428058624268
v -363.04425048828125 -5.21358203887939 52.25194549560547
v -374.25616455078125 77.59734344482422 55.22565078735352
v -363.04425048828125 70.13655853271484 52.25194549560547
v -393.59979248046875 77.59734344482422 21.6642894744873
v -354.8486328125 -5.21358203887939 44.05634307861328
v -385.436279296875 77.59734344482422 52.22109222412109
v -355.32907104492188 -5.40766620635986 43.77896881103516
v -352.40359497070312 -5.40766620635986 32.86094284057617
v -396.60433959960938 77.59734344482422 32.8774528503418
v -393.61630249023438 77.59734344482422 44.02899932861328
v -374.22042846679688 75.3975830078125 59.51056671142578
v -387.54779052734375 75.3975830078125 55.94980621337891
v -397.30926513671875 75.3975830078125 46.2024040222168
v -400.88925170898438 75.3975830078125 32.88016510009766
v -397.30926513671875 75.3975830078125 19.51948165893555
v -387.54779052734375 75.3975830078125 9.77207851409912
v -374.22042846679688 75.3975830078125 6.2113184928894
v -360.898193359375 75.3975830078125 9.79130268096924
v -351.15078735351562 75.3975830078125 19.55277824401855
v -347.59002685546875 75.3975830078125 32.88016510009766
v -351.17001342773438 75.3975830078125 46.2024040222168
v -360.898193359375 75.3975830078125 55.93058013916016
v -374.23941040039062 70.47793579101562 59.43966674804688
v -360.9500732421875 70.47793579101562 55.87867736816406
v -351.22189331054688 70.47793579101562 46.1505012512207
v -347.66091918945312 70.47793579101562 32.86116790771484
v -351.2216796875 70.47793579101562 19.57177543640137
v -360.9500732421875 70.47793579101562 9.84320545196533
v -374.23941040039062 70.47793579101562 6.28221845626831
v -387.52880859375 70.47793579101562 9.84297943115234
v -397.25738525390625 70.47793579101562 19.57138442993164
v -400.818359375 70.47793579101562 32.86116790771484
v -397.25738525390625 70.47793579101562 46.1505012512207
v -387.52880859375 70.47793579101562 55.87890625
v -374.2255859375 75.66901397705078 55.22565078735352
v -385.40982055664062 75.66901397705078 52.23637771606445
v -393.60101318359375 75.66901397705078 44.05546951293945
v -396.60433959960938 75.66901397705078 32.8774528503418
v -393.59979248046875 75.66901397705078 21.6642894744873
v -385.40768432617188 75.66901397705078 13.48428058624268
v -374.22314453125 75.66901397705078 10.4962329864502
v -363.04299926757812 75.66901397705078 13.5007905960083
v -354.86297607421875 75.66901397705078 21.69288635253906
v -351.87493896484375 75.66901397705078 32.8774528503418
v -354.87948608398438 75.66901397705078 44.05759429931641
v -363.04510498046875 75.66901397705078 52.22232055664062
v -387.49652099609375 70.41649627685547 55.82253265380859
v -374.23965454101562 70.41649627685547 59.37470245361328
v -360.98275756835938 70.41649627685547 55.82253265380859
v -351.27804565429688 70.41649627685547 46.11782073974609
v -347.72589111328125 70.41649627685547 32.86094284057617
v -351.27804565429688 70.41649627685547 19.60406303405762
v -360.98275756835938 70.41649627685547 9.89935398101807
v -374.23965454101562 70.41649627685547 6.34718322753906
v -387.49652099609375 70.41649627685547 9.89935398101807
v -397.20123291015625 70.41649627685547 19.60406303405762
v -400.75338745117188 70.41649627685547 32.86094284057617
v -397.20123291015625 70.41649627685547 46.11782073974609
v -374.23965454101562 70.24430847167969 55.5397834777832
v -385.57907104492188 70.24430847167969 52.50139617919922
v -393.88009643554688 70.24430847167969 44.20036315917969
v -396.91848754882812 70.24430847167969 32.86094284057617
v -393.88009643554688 70.24430847167969 21.52152061462402
v -385.57907104492188 70.24430847167969 13.22048854827881
v -374.23965454101562 70.24430847167969 10.18210029602051
v -362.90020751953125 70.24430847167969 13.22048854827881
v -354.59918212890625 70.24430847167969 21.52152061462402
v -351.560791015625 70.24430847167969 32.86094284057617
v -354.59918212890625 70.24430847167969 44.20036315917969
v -362.90020751953125 70.24430847167969 52.50139617919922
v -385.41934204101562 75.51394653320312 52.25782775878906
v -374.22311401367188 75.51394653320312 55.24899673461914
v -363.03131103515625 75.51394653320312 52.24130249023438
v -354.85928344726562 75.51394653320312 44.06928253173828
v -351.85159301757812 75.51394653320312 32.87746810913086
v -354.84274291992188 75.51394653320312 21.68122673034668
v -363.03131103515625 75.51394653320312 13.48058128356934
v -374.22311401367188 75.51394653320312 10.47288799285889
v -385.41934204101562 75.51394653320312 13.46405506134033
v -393.6199951171875 75.51394653320312 21.65260314941406
v -396.627685546875 75.51394653320312 32.87746810913086
v -393.6199951171875 75.51394653320312 44.06928253173828
# 267 vertices

vn 0 -1 0
vn 0 0 0
vn 1 0 0
vn 1 0 -0.00000000771341
vn 0.86602544784546 0 -0.49999991059303
vn 0.86602544784546 0 -0.49999991059303
vn -0.00000000791807 1 0.0000000002717
vn 0.01798183843493 0.99978440999985 -0.01038179732859
vn 0.02076367661357 0.99978440999985 -0.00000000104775
vn 0.50000023841858 0 -0.86602526903152
vn 0.50000023841858 0 -0.86602526903152
vn 0.01038173213601 0.99978440999985 -0.01798158884048
vn -0.00000026996929 0 -1
vn -0.0000002622559 0 -1
vn -0.00000000582086 0.99978440999985 -0.02076318114996
vn -0.50000041723251 0 -0.86602514982224
vn -0.50000041723251 0 -0.86602514982224
vn -0.01038174331188 0.99978440999985 -0.01798159442842
vn -0.86602544784546 0 -0.49999991059303
vn -0.01798185147345 0.99978440999985 -0.01038180291653
vn -1 0 0.00000000771341
vn -1 0 0
vn -0.02076368965209 0.99978440999985 -0.00000000244476
vn -0.86602538824081 0 0.49999997019768
vn -0.86602538824081 0 0.5
vn -0.01798183657229 0.99978440999985 0.01038179546595
vn -0.50000041723251 0 0.86602514982224
vn -0.50000047683716 0 0.86602509021759
vn -0.0103817358613 0.99978440999985 0.0179815813899
vn -0.00000026996929 0 1
vn -0.00000027768272 0 1
vn -0.00000000535519 0.99978440999985 0.02076316438615
vn 0.50000023841858 0 0.86602526903152
vn 0.01038173027337 0.99978440999985 0.01798158325255
vn 0.86602538824081 0 0.5
vn 0.017981832847 0.99978440999985 0.01038179546595
vn 0.50000017881393 0 -0.86602532863617
vn -0.00000027768272 0 -1
vn -0.86602538824081 0 -0.49999997019768
vn 0.86602544784546 0 -0.49999994039536
vn 0.50000017881393 0 -0.86602526903152
vn -0.86602544784546 0 -0.49999994039536
vn -0.00700624706224 0.99990159273148 0.01215568371117
vn -0.00701266061515 0.99990141391754 0.012166922912
vn 0.00001014758709 0.99990141391754 0.01404241565615
vn 0.00001025754318 0.99990159273148 0.01403015200049
vn 0.00702550867572 0.99990141391754 0.01215858384967
vn 0.00701933726668 0.99990159273148 0.01214820332825
vn 0.01215944904834 0.99990141391754 0.00702574430034
vn 0.01214836072177 0.99990159273148 0.00701937871054
vn 0.01404237095267 0.99990141391754 0.00001063013315
vn 0.0140303876251 0.99990159273148 0.00001027710096
vn 0.01216534338892 0.99990141391754 -0.00701175816357
vn 0.01215575449169 0.99990159273148 -0.00700626289472
vn 0.00702975597233 0.99990141391754 -0.01215537264943
vn 0.00702402321622 0.99990159273148 -0.01214539352804
vn 0.00001017279192 0.99990141391754 -0.01404261123389
vn 0.00001026761129 0.99990159273148 -0.01403017807752
vn -0.00701276864856 0.99990141391754 -0.012167067267
vn -0.00700621819124 0.99990159273148 -0.01215565111488
vn -0.01215953845531 0.99990141391754 -0.00702588725835
vn -0.01214818190783 0.99990159273148 -0.0070192492567
vn -0.0140433749184 0.99990141391754 0.00000481613597
vn -0.01403036247939 0.99990159273148 0.00000478691527
vn -0.01215674355626 0.99990141391754 0.00703060859814
vn -0.01214553788304 0.99990159273148 0.00702406326309
vn -0.01037567295134 0.99978464841843 0.01797096058726
vn -0.01797147467732 0.99978464841843 0.01037579961121
vn -0.02075176686049 0.99978464841843 -0.00000000512235
vn -0.01797150447965 0.99978464841843 -0.01037581637502
vn -0.01037568878382 0.99978464841843 -0.01797098852694
vn -0.00000000582086 0.99978470802307 -0.02075076475739
vn 0.0103756794706 0.99978464841843 -0.0179709866643
vn 0.01797149702907 0.99978464841843 -0.01037581078708
vn 0.02075176499784 0.99978464841843 -0.00000000279401
vn 0.0179714821279 0.99978464841843 0.01037580706179
vn 0.01037567295134 0.99978464841843 0.01797096990049
vn -0.00000000465668 0.99978470802307 0.02075073309243
vn 1 0 0
vn 0.86602544784546 0 -0.49999994039536
vn 0.86602544784546 0 -0.49999997019768
vn 0.49999955296516 0 -0.86602568626404
vn -0.49999988079071 0 0.8660255074501
vn -0.49999979138374 0 0.8660255074501
vn -0.00000033938997 0 1
vn -0.00000033167657 0 1
vn -0.00000032396315 0 -1
vn -0.00000033167657 0 -1
vn -0.49999982118607 0 -0.8660255074501
vn 0.49999955296516 0 0.86602568626404
vn 0.49999952316284 0 0.86602568626404
vn -0.86602544784546 0 -0.49999997019768
vn -0.86602544784546 0 -0.49999994039536
vn -1 0 0
vn 0.86602544784546 0 0.49999997019768
vn 0.86602544784546 0 0.49999994039536
vn -0.86602544784546 0 0.49999994039536
vn 0.04483737051487 -0.9989942908287 -0.00000001024529
vn 0.03883054107428 -0.9989942908287 -0.0224188901484
vn 0.03884306550026 -0.99899363517761 -0.0224260147661
vn 0.04485220462084 -0.99899363517761 0.00000000162993
vn 0.03883062675595 -0.9989942908287 0.02241900749505
vn 0.03884311020374 -0.99899363517761 0.02242605574429
vn 0.02241848409176 -0.99899435043335 -0.03882899135351
vn 0.02242603711784 -0.99899363517761 -0.03884315863252
vn 0.02241867780685 -0.99899435043335 0.03882935643196
vn 0.02242609299719 -0.99899363517761 0.03884326294065
vn 0.00000018045675 -0.99899446964264 -0.04483361169696
vn -0.00000001443654 -0.99899363517761 -0.04485237598419
vn 0.00000018045677 -0.99899446964264 0.04483409225941
vn -0.00000001490224 -0.99899363517761 0.04485250636935
vn -0.02241690829396 -0.99899446964264 -0.03882687166333
vn -0.02242605574429 -0.99899363517761 -0.03884315490723
vn -0.02241703495383 -0.99899446964264 0.03882717341185
vn -0.022426109761 -0.99899363517761 0.03884325549006
vn -0.03882912546396 -0.99899435043335 -0.02241747826338
vn -0.03884306550026 -0.99899363517761 -0.0224260147661
vn -0.03882915526628 -0.99899435043335 0.02241753228009
vn -0.03884311020374 -0.99899363517761 0.02242605574429
vn -0.04483734071255 -0.9989942908287 -0.00000000698542
vn -0.04485220089555 -0.99899363517761 0.00000000419125
vn 0.99989473819733 -0.0145008424297 0.00054497935344
vn 0.99989330768585 -0.01459112484008 0.00072524033021
vn 0.86629605293274 -0.01455954648554 -0.49931868910789
vn 0.86620700359344 -0.01448525302112 -0.49947535991669
vn 0.86579233407974 -0.01502373255789 0.50017791986465
vn 0.86574590206146 -0.01512271445245 0.50025522708893
vn 0.50057524442673 -0.01452943682671 -0.86557108163834
vn 0.50041967630386 -0.0144703341648 -0.86566203832626
vn 0.50017809867859 -0.01500396803021 0.86579257249832
vn 0.50025546550751 -0.0150835281238 0.86574643850327
vn 0.00072528672172 -0.01445616781712 -0.99989521503448
vn 0.00054503331194 -0.01443429570645 -0.99989569187164
vn 0.00054503331194 -0.01444117818028 0.99989557266235
vn 0.00072519417154 -0.01447274629027 0.99989497661591
vn -0.49931856989861 -0.01453780196607 -0.86629647016525
vn -0.49947533011436 -0.01447466947138 -0.86620718240738
vn -0.49947535991669 -0.01446749083698 0.86620730161667
vn -0.49931874871254 -0.01452627126127 0.86629658937454
vn -0.86575871706009 -0.01412076409906 -0.50026232004166
vn -0.86580514907837 -0.01400641258806 -0.50018525123596
vn -0.86566150188446 -0.01452026888728 0.50041919946671
vn -0.86556988954544 -0.014633346349 0.50057429075241
vn -0.99990057945251 -0.01409712713212 0.00036086598993
vn -0.99990206956863 -0.01399383414537 0.00027073553065
vn 0.01402695383877 0.99990159273148 0.00001025661186
vn 0.01215269695967 0.99990159273148 -0.00700452690944
vn 0.01214540377259 0.99990159273148 0.00701763713732
vn 0.00702220667154 0.99990159273148 -0.01214227639139
vn 0.00701754400507 0.99990159273148 0.01214504987001
vn 0.00001023379355 0.99990165233612 -0.0140265179798
vn 0.00001021225671 0.99990165233612 0.01402643229812
vn -0.00700445473194 0.99990159273148 -0.01215250510722
vn -0.0070044961758 0.99990159273148 0.01215254329145
vn -0.0121452100575 0.99990159273148 -0.00701748160645
vn -0.01214257162064 0.99990159273148 0.00702229049057
vn -0.01402698922902 0.99990159273148 0.00000476700825
vn 0.99999970197678 0 0.00073822698323
vn 0.99999970197678 0 0.00073821929982
vn 0.86639434099197 0 -0.49936047196388
vn 0.86578756570816 0.00104914489202 0.5004106760025
vn 0.86574137210846 0.0010606974829 0.5004905462265
vn 0.5006388425827 0 -0.86565625667572
vn 0.50004363059998 0.00104447407648 0.86599957942963
vn 0.4998037815094 0.00106154661626 0.86613804101944
vn 0.00073789554881 0 -0.99999970197678
vn 0.00031402058084 -0.00000372952513 0.99999994039536
vn -0.00005508916365 0.00000072313827 1
vn -0.49936047196388 0 -0.86639434099197
vn -0.49936044216156 0 -0.86639434099197
vn -0.49972778558731 -0.0000003577731 0.86618250608444
vn -0.50004750490189 0.00000010593973 0.86599797010422
vn -0.86584085226059 0 -0.50031954050064
vn -0.86581462621689 -0.00105595239438 0.50036376714706
vn -0.86595314741135 -0.00105964113027 0.50012403726578
vn -0.99999940395355 -0.00105997768696 0.00017072103219
vn -0.99999940395355 -0.00105475715827 0.00026300729951
vn 0.86602544784546 0 0.49999991059303
vn -0.49999988079071 0 0.86602544784546
vn -0.86602544784546 0 0.49999991059303
vn -0.49999985098839 0 -0.8660255074501
vn -0.00000033938997 0 -1
vn -0.86602544784546 0 0.49999997019768
vn -0.49999982118607 0 0.8660255074501
vn 0.00018448031915 -0.01441856753081 0.99989604949951
vn 0.00000408807819 -0.01442752685398 0.99989593029022
vn -0.49994432926178 -0.01442558132112 0.86593741178513
vn -0.49978822469711 -0.01441714633256 0.86602765321732
vn -0.86593109369278 -0.01459392625839 0.49995031952858
vn -0.86584210395813 -0.01450055930763 0.50010716915131
vn -0.99989944696426 -0.01417880970985 0.00000026225428
vn -0.99990153312683 -0.01403468288481 0.00009044136095
vn -0.86593955755234 -0.01407091598958 -0.49995070695877
vn -0.86589556932449 -0.01398149132729 -0.50002938508987
vn -0.49994441866875 -0.01441150903702 -0.86593759059906
vn -0.49978822469711 -0.01441152114421 -0.86602771282196
vn 0.00000394923745 -0.01442673243582 -0.99989593029022
vn 0.00018436461687 -0.01441957708448 -0.99989598989487
vn 0.49995046854019 -0.01456726901233 -0.86593145132065
vn 0.5001072883606 -0.01448924932629 -0.86584222316742
vn 0.86593520641327 -0.01460997201502 -0.49994277954102
vn 0.86602658033371 -0.01451046671718 -0.49978736042976
vn 0.99989277124405 -0.01464489474893 0.00000384124951
vn 0.9998944401741 -0.01452772691846 0.000184279721
vn 0.8659251332283 -0.01521427556872 0.49994215369225
vn 0.86588197946548 -0.01506950706244 0.50002133846283
vn 0.49994266033173 -0.01511528622359 0.86592656373978
vn 0.5000216960907 -0.0150198424235 0.86588263511658
vn 0.00068313034717 -0.00000818218905 0.99999976158142
vn -0.49940806627274 -0.00000082148568 0.86636686325073
vn -0.86567610502243 -0.00105226330925 0.50060343742371
vn -0.99999940395355 -0.00104953628033 0.00035529813613
vn 0.99999970197678 0 0.00073825014988
vn 0.86583375930786 0.00103759276681 0.50033074617386
vn 0.50028330087662 0.0010274022352 0.86586117744446
vn -0.02240664698184 -0.99899542331696 0.03880892321467
vn 0.00000037535003 -0.99899536371231 0.04481336474419
vn 0.02240994013846 -0.99899518489838 0.03881329298019
vn 0.03881577402353 -0.99899506568909 0.0224105976522
vn 0.04481983184814 -0.99899506568909 -0.00000001909349
vn 0.0388155952096 -0.99899506568909 -0.02241036109626
vn 0.02240955270827 -0.99899518489838 -0.03881254792213
vn 0.00000037488434 -0.99899542331696 -0.04481238499284
vn -0.02240638434887 -0.99899542331696 -0.03880830854177
vn -0.03881276398897 -0.99899524450302 -0.02240753360093
vn -0.0448197722435 -0.99899506568909 -0.00000001723071
vn -0.0388128310442 -0.99899524450302 0.02240764349699
vn -0.00000001536793 -0.99899369478226 0.04485020041466
vn -0.02242479100823 -0.9989937543869 0.03884109854698
vn -0.03884074836969 -0.9989937543869 0.0224246904254
vn -0.04484948515892 -0.9989937543869 0.00000000512264
vn -0.03884065151215 -0.9989937543869 -0.02242460846901
vn -0.02242467738688 -0.9989937543869 -0.03884088248014
vn -0.00000001490224 -0.9989937543869 -0.0448499135673
vn 0.02242465876043 -0.9989937543869 -0.03884088993073
vn 0.03884065151215 -0.9989937543869 -0.02242460846901
vn 0.04484949633479 -0.9989937543869 0.00000000465695
vn 0.03884075582027 -0.9989937543869 0.02242469228804
vn 0.02242477796972 -0.9989937543869 0.03884110599756
vn -0.0070173246786 0.99990123510361 0.01217502262443
vn 0.00000999234635 0.99990129470825 0.01405096054077
vn 0.00702988728881 0.99990129470825 0.01216581277549
vn 0.01216758228838 0.99990123510361 0.0070303673856
vn 0.01405091956258 0.99990129470825 0.00001096267533
vn 0.01217187568545 0.99990129470825 -0.00701551744714
vn 0.00703367125243 0.99990129470825 -0.01216223090887
vn 0.00001004403566 0.99990129470825 -0.0140513824299
vn -0.00701755285263 0.99990123510361 -0.01217533554882
vn -0.0121679212898 0.99990123510361 -0.00703075574711
vn -0.0140530122444 0.99990123510361 0.00000482533324
vn -0.01216498296708 0.99990123510361 0.00703538255766
# 251 normals

vt 0.14918723702431 0.85081279277802 0
vt 0.25145104527473 0.74854898452759 0
vt 0.18661838769913 0.71111780405045 0
vt 0.81265425682068 0.81641399860382 0
vt 0.81265425682068 0.81900882720947 0
vt 0.82698863744736 0.81900882720947 0
vt 0.82698863744736 0.81641399860382 0
vt 0.14918723702431 0.5524383187294 0
vt 0.28909683227539 0.58992695808411 0
vt 0.28909683227539 0.51494967937469 0
vt 0.11175607889891 0.71111780405045 0
vt 0.84132301807404 0.81900882720947 0
vt 0.84132301807404 0.81641399860382 0
vt 0.25160816311836 0.65485924482346 0
vt 0.0469234213233 0.74854898452759 0
vt 0.85565739870071 0.81900882720947 0
vt 0.85565739870071 0.81641399860382 0
vt 0.18667589128017 0.69234788417816 0
vt 0.00949226785451 0.81338161230087 0
vt 0.86999183893204 0.81900882720947 0
vt 0.86999183893204 0.81641399860382 0
vt 0.11169856786728 0.69234788417816 0
vt 0.00949226785451 0.88824391365051 0
vt 0.88432621955872 0.81900882720947 0
vt 0.88432621955872 0.81641399860382 0
vt 0.04676630347967 0.65485924482346 0
vt 0.0469234213233 0.95307660102844 0
vt 0.89866060018539 0.81900882720947 0
vt 0.89866060018539 0.81641399860382 0
vt 0.00927764270455 0.58992695808411 0
vt 0.11175607889891 0.99050772190094 0
vt 0.91299498081207 0.81900882720947 0
vt 0.91299498081207 0.81641399860382 0
vt 0.00927764270455 0.51494967937469 0
vt 0.18661838769913 0.99050772190094 0
vt 0.92732936143875 0.81900882720947 0
vt 0.92732936143875 0.81641399860382 0
vt 0.04676630347967 0.45001745223999 0
vt 0.25145104527473 0.95307660102844 0
vt 0.94166374206543 0.81900882720947 0
vt 0.94166374206543 0.81641399860382 0
vt 0.11169856786728 0.41252875328064 0
vt 0.28888219594955 0.88824391365051 0
vt 0.95599812269211 0.81900882720947 0
vt 0.95599812269211 0.81641399860382 0
vt 0.18667589128017 0.41252875328064 0
vt 0.28888219594955 0.81338161230087 0
vt 0.97033250331879 0.81900882720947 0
vt 0.97033250331879 0.81641399860382 0
vt 0.25160816311836 0.45001745223999 0
vt 0.98466688394547 0.81900882720947 0
vt 0.98466688394547 0.81641399860382 0
vt 0.92732936143875 0.98546832799912 0
vt 0.94166374206543 0.98546832799912 0
vt 0.95599812269211 0.98546832799912 0
vt 0.97033250331879 0.98546832799912 0
vt 0.98466688394547 0.98546832799912 0
vt 0.81265425682068 0.98546832799912 0
vt 0.82698863744736 0.98546832799912 0
vt 0.84132301807404 0.98546832799912 0
vt 0.85565739870071 0.98546832799912 0
vt 0.86999183893204 0.98546832799912 0
vt 0.88432621955872 0.98546832799912 0
vt 0.89866060018539 0.98546832799912 0
vt 0.91299498081207 0.98546832799912 0
vt 0.04605378583074 0.95394623279572 0
vt 0.11143776774406 0.99169570207596 0
vt 0.00830432306975 0.88856220245361 0
vt 0.00830432306975 0.81306332349777 0
vt 0.04605378583074 0.74767935276032 0
vt 0.11143776774406 0.70992988348007 0
vt 0.18693669140339 0.70992988348007 0
vt 0.25232067704201 0.74767935276032 0
vt 0.29007014632225 0.81306332349777 0
vt 0.29007014632225 0.88856220245361 0
vt 0.25232067704201 0.95394623279572 0
vt 0.18693669140339 0.99169570207596 0
vt 0.92732936143875 0.98842662572861 0
vt 0.94166374206543 0.98842662572861 0
vt 0.95599812269211 0.98842662572861 0
vt 0.97033250331879 0.98842662572861 0
vt 0.98466688394547 0.98842662572861 0
vt 0.81265425682068 0.98842662572861 0
vt 0.82698863744736 0.98842662572861 0
vt 0.84132301807404 0.98842662572861 0
vt 0.85565739870071 0.98842662572861 0
vt 0.86999183893204 0.98842662572861 0
vt 0.88432621955872 0.98842662572861 0
vt 0.89866060018539 0.98842662572861 0
vt 0.91299498081207 0.98842662572861 0
vt 0.04499297961593 0.16414451599121 0
vt 0.05984992906451 0.17902183532715 0
vt 0.11197829991579 0.14897680282593 0
vt 0.10655045509338 0.12866413593292 0
vt 0.17214533686638 0.14902114868164 0
vt 0.17760096490383 0.12871599197388 0
vt 0.22410795092583 0.17902183532715 0
vt 0.23896490037441 0.16414451599121 0
vt 0.25422993302345 0.23110580444336 0
vt 0.27453505992889 0.22565007209778 0
vt 0.25427433848381 0.29127287864685 0
vt 0.27458691596985 0.29670059680939 0
vt 0.22422929108143 0.34340119361877 0
vt 0.23910658061504 0.3582581281662 0
vt 0.17214533686638 0.37352311611176 0
vt 0.17760096490383 0.39382827281952 0
vt 0.11197829991579 0.37356758117676 0
vt 0.10655045509338 0.39388012886047 0
vt 0.05984992906451 0.34352254867554 0
vt 0.04499297961593 0.35839974880219 0
vt 0.02968354523182 0.29127287864685 0
vt 0.00937095563859 0.29670059680939 0
vt 0.02972795814276 0.23110580444336 0
vt 0.00942281447351 0.22565007209778 0
vt 0.04605378583074 0.44930493831635 0
vt 0.00830432306975 0.51468884944916 0
vt 0.00830432306975 0.59018778800964 0
vt 0.04605378583074 0.6555717587471 0
vt 0.11143776774406 0.69332122802734 0
vt 0.18693669140339 0.69332122802734 0
vt 0.25232067704201 0.6555717587471 0
vt 0.29007014632225 0.59018778800964 0
vt 0.29007014632225 0.51468884944916 0
vt 0.25232067704201 0.44930493831635 0
vt 0.18693669140339 0.41155540943146 0
vt 0.11143776774406 0.41155540943146 0
vt 0.68772703409195 0.23988449573517 0
vt 0.7972320318222 0.21054267883301 0
vt 0.76789021492004 0.15972125530243 0
vt 0.76480358839035 0.44996976852417 0
vt 0.76480358839035 0.79585349559784 0
vt 0.79373776912689 0.79585349559784 0
vt 0.79373776912689 0.44996976852417 0
vt 0.65838527679443 0.34938943386078 0
vt 0.71706879138947 0.34938943386078 0
vt 0.71706879138947 0.13037955760956 0
vt 0.44652777910233 0.44996976852417 0
vt 0.44652777910233 0.79585349559784 0
vt 0.47546195983887 0.79585349559784 0
vt 0.47546195983887 0.44996976852417 0
vt 0.64906692504883 0.44996976852417 0
vt 0.64906692504883 0.79585349559784 0
vt 0.67800110578537 0.79585349559784 0
vt 0.67800110578537 0.44996976852417 0
vt 0.65838527679443 0.13037955760956 0
vt 0.50439614057541 0.79585349559784 0
vt 0.50439614057541 0.44996976852417 0
vt 0.76789021492004 0.32004773616791 0
vt 0.60756385326386 0.15972125530243 0
vt 0.53333032131195 0.79585349559784 0
vt 0.53333032131195 0.44996976852417 0
vt 0.70693522691727 0.79585349559784 0
vt 0.70693522691727 0.44996976852417 0
vt 0.57822209596634 0.21054267883301 0
vt 0.56226444244385 0.79585349559784 0
vt 0.56226444244385 0.44996976852417 0
vt 0.7972320318222 0.26922631263733 0
vt 0.57822209596634 0.26922631263733 0
vt 0.59119862318039 0.79585349559784 0
vt 0.59119862318039 0.44996976852417 0
vt 0.73586940765381 0.79585349559784 0
vt 0.73586940765381 0.44996976852417 0
vt 0.60756385326386 0.32004773616791 0
vt 0.62013274431229 0.79585349559784 0
vt 0.62013274431229 0.44996976852417 0
vt 0.5585098862648 0.22525477409363 0
vt 0.5228825211525 0.16354644298553 0
vt 0.50880402326584 0.17762494087219 0
vt 0.53927826881409 0.23040795326233 0
vt 0.5585098862648 0.29650950431824 0
vt 0.53927826881409 0.29135644435883 0
vt 0.46117416024208 0.12791907787323 0
vt 0.45602107048035 0.14715075492859 0
vt 0.5228825211525 0.35821783542633 0
vt 0.50880402326584 0.34413933753967 0
vt 0.38991948962212 0.12791907787323 0
vt 0.39507257938385 0.14715075492859 0
vt 0.46117416024208 0.39384520053864 0
vt 0.45602107048035 0.37461364269257 0
vt 0.32821109890938 0.16354644298553 0
vt 0.34228962659836 0.17762494087219 0
vt 0.38991948962212 0.39384520053864 0
vt 0.39507257938385 0.37461364269257 0
vt 0.2925837635994 0.22525477409363 0
vt 0.31181538105011 0.23040795326233 0
vt 0.32821109890938 0.35821783542633 0
vt 0.34228962659836 0.34413933753967 0
vt 0.2925837635994 0.29650950431824 0
vt 0.31181538105011 0.29135644435883 0
vt 0.77998292446136 0.98645794391632 0
vt 0.77998268604279 0.98834478855133 0
vt 0.79398375749588 0.98834478855133 0
vt 0.79398399591446 0.98645794391632 0
vt 0.76598185300827 0.98645794391632 0
vt 0.76598167419434 0.98834478855133 0
vt 0.62597125768662 0.98645794391632 0
vt 0.62597107887268 0.98834478855133 0
vt 0.63997215032578 0.98834478855133 0
vt 0.63997232913971 0.98645794391632 0
vt 0.75201940536499 0.98645794391632 0
vt 0.75201958417892 0.98834478855133 0
vt 0.65397316217422 0.98834478855133 0
vt 0.6539734005928 0.98645794391632 0
vt 0.7380183339119 0.98645794391632 0
vt 0.73801857233047 0.98834478855133 0
vt 0.66797423362732 0.98834478855133 0
vt 0.6679744720459 0.98645794391632 0
vt 0.7240172624588 0.98645794391632 0
vt 0.72401750087738 0.98834478855133 0
vt 0.68197530508041 0.98834478855133 0
vt 0.68197554349899 0.98645794391632 0
vt 0.71001619100571 0.98645794391632 0
vt 0.71001642942429 0.98834478855133 0
vt 0.69601535797119 0.98834478855133 0
vt 0.69601517915726 0.98645794391632 0
vt 0.27560129761696 0.22536361217499 0
vt 0.27565357089043 0.2969856262207 0
vt 0.23974505066872 0.16336333751678 0
vt 0.23988780379295 0.35903823375702 0
vt 0.17788745462894 0.12764978408813 0
vt 0.17788745462894 0.39489448070526 0
vt 0.10626543313265 0.12759757041931 0
vt 0.10626543313265 0.39494681358337 0
vt 0.04421282932162 0.16336333751678 0
vt 0.04421282932162 0.3591810464859 0
vt 0.00835657306015 0.22536361217499 0
vt 0.00830432306975 0.2969856262207 0
vt 0.59565931558609 0.83456152677536 0
vt 0.59565931558609 0.98694139719009 0
vt 0.60937660932541 0.98694139719009 0
vt 0.60937660932541 0.83456152677536 0
vt 0.58194208145142 0.83456152677536 0
vt 0.58194208145142 0.98694139719009 0
vt 0.44476923346519 0.83456152677536 0
vt 0.44476923346519 0.98694139719009 0
vt 0.45848649740219 0.98694139719009 0
vt 0.45848649740219 0.83456152677536 0
vt 0.56826055049896 0.83456152677536 0
vt 0.5682247877121 0.98694139719009 0
vt 0.47220376133919 0.98694139719009 0
vt 0.47220376133919 0.83456152677536 0
vt 0.55454331636429 0.83456152677536 0
vt 0.55450749397278 0.98694139719009 0
vt 0.48592102527618 0.98694139719009 0
vt 0.48592102527618 0.83456152677536 0
vt 0.54082602262497 0.83456152677536 0
vt 0.54079020023346 0.98694139719009 0
vt 0.49963837862015 0.98694139719009 0
vt 0.49963837862015 0.83456152677536 0
vt 0.5271087884903 0.83456152677536 0
vt 0.52707296609879 0.98694139719009 0
vt 0.51339435577393 0.98694139719009 0
vt 0.51339435577393 0.83456152677536 0
vt 0.73586940765381 0.44907879829407 0
vt 0.70693522691727 0.44907879829407 0
vt 0.67800110578537 0.44907879829407 0
vt 0.64906692504883 0.44907879829407 0
vt 0.62013274431229 0.44907879829407 0
vt 0.59119862318039 0.44907879829407 0
vt 0.56226444244385 0.44907879829407 0
vt 0.53333032131195 0.44907879829407 0
vt 0.50439614057541 0.44907879829407 0
vt 0.47546195983887 0.44907879829407 0
vt 0.44652777910233 0.44907879829407 0
vt 0.79373776912689 0.44907879829407 0
vt 0.76480358839035 0.44907879829407 0
vt 0.73586940765381 0.79628872871399 0
vt 0.76480358839035 0.79628872871399 0
vt 0.79373776912689 0.79628872871399 0
vt 0.44652777910233 0.79628872871399 0
vt 0.47546195983887 0.79628872871399 0
vt 0.50439614057541 0.79628872871399 0
vt 0.53333032131195 0.79628872871399 0
vt 0.56226444244385 0.79628872871399 0
vt 0.59119862318039 0.79628872871399 0
vt 0.62013274431229 0.79628872871399 0
vt 0.64906692504883 0.79628872871399 0
vt 0.67800110578537 0.79628872871399 0
vt 0.70693522691727 0.79628872871399 0
vt 0.80001401901245 0.26997172832489 0
vt 0.80001401901245 0.20979726314545 0
vt 0.76992678642273 0.15768468379974 0
vt 0.71781426668167 0.12759757041931 0
vt 0.65763986110687 0.12759757041931 0
vt 0.60552728176117 0.15768468379974 0
vt 0.57544010877609 0.20979726314545 0
vt 0.57544010877609 0.26997172832489 0
vt 0.60552728176117 0.32208430767059 0
vt 0.65763986110687 0.35217142105103 0
vt 0.71781426668167 0.35217142105103 0
vt 0.76992678642273 0.32208430767059 0
vt 0.73799926042557 0.82228636741638 0
vt 0.73799902200699 0.82033205032349 0
vt 0.72399801015854 0.82033205032349 0
vt 0.72399818897247 0.82228636741638 0
vt 0.70999693870544 0.82033205032349 0
vt 0.70999717712402 0.82228636741638 0
vt 0.69599586725235 0.82033205032349 0
vt 0.69599610567093 0.82228636741638 0
vt 0.68199479579926 0.82033205032349 0
vt 0.68199455738068 0.82228636741638 0
vt 0.66799372434616 0.82033205032349 0
vt 0.66799354553223 0.82228636741638 0
vt 0.65399271249771 0.82033205032349 0
vt 0.65399247407913 0.82228636741638 0
vt 0.63999164104462 0.82033205032349 0
vt 0.63999140262604 0.82228636741638 0
vt 0.62599056959152 0.82033205032349 0
vt 0.62599033117294 0.82228636741638 0
vt 0.79400300979614 0.82228636741638 0
vt 0.79400324821472 0.82033205032349 0
vt 0.78000223636627 0.82033205032349 0
vt 0.78000199794769 0.82228636741638 0
vt 0.76600116491318 0.82033205032349 0
vt 0.7660009264946 0.82228636741638 0
vt 0.75200009346008 0.82033205032349 0
vt 0.75200033187866 0.82228636741638 0
vt 0.55454617738724 0.82233417034149 0
vt 0.54082894325256 0.82233417034149 0
vt 0.5271115899086 0.82233417034149 0
vt 0.51339435577393 0.82233417034149 0
vt 0.49963837862015 0.82233417034149 0
vt 0.48592102527618 0.82233417034149 0
vt 0.47220376133919 0.82233417034149 0
vt 0.45848649740219 0.82233417034149 0
vt 0.44476923346519 0.82233417034149 0
vt 0.60937660932541 0.82233417034149 0
vt 0.59565931558609 0.82233417034149 0
vt 0.58194208145142 0.82233417034149 0
vt 0.56826347112656 0.82233417034149 0
vt 0.38983333110809 0.39416682720184 0
vt 0.4612603187561 0.39416682720184 0
vt 0.52311795949936 0.35845327377319 0
vt 0.55883145332336 0.29659569263458 0
vt 0.55883145332336 0.22516870498657 0
vt 0.52311795949936 0.16331100463867 0
vt 0.4612603187561 0.12759757041931 0
vt 0.38983333110809 0.12759757041931 0
vt 0.32797572016716 0.16331100463867 0
vt 0.29226219654083 0.22516870498657 0
vt 0.29226219654083 0.29659569263458 0
vt 0.32797572016716 0.35845327377319 0
vt 0.4556340277195 0.37316906452179 0
vt 0.3954596221447 0.37316906452179 0
vt 0.34334707260132 0.34308195114136 0
vt 0.31325986981392 0.29096937179565 0
vt 0.31325986981392 0.23079490661621 0
vt 0.34334707260132 0.1786824464798 0
vt 0.3954596221447 0.14859521389008 0
vt 0.4556340277195 0.14859521389008 0
vt 0.50774657726288 0.1786824464798 0
vt 0.5378338098526 0.23079490661621 0
vt 0.5378338098526 0.29096937179565 0
vt 0.50774657726288 0.34308195114136 0
vt 0.05993557348847 0.17910754680634 0
vt 0.1120095923543 0.14909386634827 0
vt 0.1721138805151 0.14913821220398 0
vt 0.22402231395245 0.17910754680634 0
vt 0.25411286950111 0.2311372756958 0
vt 0.25415724515915 0.2912415266037 0
vt 0.22414353489876 0.34331548213959 0
vt 0.1721138805151 0.37340605258942 0
vt 0.1120095923543 0.37345039844513 0
vt 0.05993557348847 0.34343671798706 0
vt 0.02980063855648 0.2912415266037 0
vt 0.02984500862658 0.2311372756958 0
# 366 texture coordinates

o Pills
usemtl default
f 27/3/1 29/2/1 1/1/1
f 4/7/6 44/6/5 43/5/4 3/4/3
f 83/10/9 82/9/8 2/8/7
f 25/11/1 27/3/1 1/1/1
f 5/13/11 45/12/10 44/6/5 4/7/6
f 82/9/8 81/14/12 2/8/7
f 23/15/1 25/11/1 1/1/1
f 6/17/14 46/16/13 45/12/10 5/13/11
f 81/14/12 80/18/15 2/8/7
f 21/19/1 23/15/1 1/1/1
f 7/21/17 47/20/16 46/16/13 6/17/14
f 80/18/15 79/22/18 2/8/7
f 19/23/1 21/19/1 1/1/1
f 8/25/19 48/24/19 47/20/16 7/21/17
f 79/22/18 78/26/20 2/8/7
f 17/27/1 19/23/1 1/1/1
f 9/29/22 49/28/21 48/24/19 8/25/19
f 78/26/20 77/30/23 2/8/7
f 15/31/1 17/27/1 1/1/1
f 10/33/25 50/32/24 49/28/21 9/29/22
f 77/30/23 76/34/26 2/8/7
f 37/35/1 15/31/1 1/1/1
f 11/37/28 39/36/27 50/32/24 10/33/25
f 76/34/26 75/38/29 2/8/7
f 35/39/1 37/35/1 1/1/1
f 12/41/31 40/40/30 39/36/27 11/37/28
f 75/38/29 86/42/32 2/8/7
f 33/43/1 35/39/1 1/1/1
f 13/45/33 41/44/33 40/40/30 12/41/31
f 86/42/32 85/46/34 2/8/7
f 31/47/1 33/43/1 1/1/1
f 14/49/35 42/48/35 41/44/33 13/45/33
f 85/46/34 84/50/36 2/8/7
f 29/2/1 31/47/1 1/1/1
f 3/52/3 43/51/4 42/48/35 14/49/35
f 84/50/36 83/10/9 2/8/7
f 39/36/27 40/40/30 52/54/31 51/53/28
f 40/40/30 41/44/33 53/55/33 52/54/31
f 41/44/33 42/48/35 54/56/35 53/55/33
f 42/48/35 43/51/4 55/57/4 54/56/35
f 43/5/4 44/6/5 56/59/6 55/58/4
f 44/6/5 45/12/10 57/60/37 56/59/6
f 45/12/10 46/16/13 58/61/38 57/60/37
f 46/16/13 47/20/16 59/62/16 58/61/38
f 47/20/16 48/24/19 60/63/39 59/62/16
f 48/24/19 49/28/21 61/64/21 60/63/39
f 49/28/21 50/32/24 62/65/25 61/64/21
f 50/32/24 39/36/27 51/53/28 62/65/25
f 15/31/1 10/67/1 9/66/1 17/27/1
f 17/27/1 9/66/1 8/68/1 19/23/1
f 19/23/1 8/68/1 7/69/1 21/19/1
f 21/19/1 7/69/1 6/70/1 23/15/1
f 23/15/1 6/70/1 5/71/1 25/11/1
f 25/11/1 5/71/1 4/72/1 27/3/1
f 27/3/1 4/72/1 3/73/1 29/2/1
f 29/2/1 3/73/1 14/74/1 31/47/1
f 31/47/1 14/74/1 13/75/1 33/43/1
f 33/43/1 13/75/1 12/76/1 35/39/1
f 35/39/1 12/76/1 11/77/1 37/35/1
f 37/35/1 11/77/1 10/67/1 15/31/1
f 52/54/31 34/79/31 32/78/28 51/53/28
f 53/55/33 36/80/33 34/79/31 52/54/31
f 54/56/35 38/81/35 36/80/33 53/55/33
f 55/57/4 16/82/3 38/81/35 54/56/35
f 56/59/6 18/84/40 16/83/3 55/58/4
f 57/60/37 20/85/41 18/84/40 56/59/6
f 58/61/38 22/86/38 20/85/41 57/60/37
f 59/62/16 24/87/17 22/86/38 58/61/38
f 60/63/39 26/88/42 24/87/17 59/62/16
f 61/64/21 28/89/22 26/88/42 60/63/39
f 62/65/25 30/90/25 28/89/22 61/64/21
f 51/53/28 32/78/28 30/90/25 62/65/25
f 64/94/46 257/93/45 256/92/44 63/91/43
f 65/96/48 258/95/47 257/93/45 64/94/46
f 66/98/50 259/97/49 258/95/47 65/96/48
f 67/100/52 260/99/51 259/97/49 66/98/50
f 68/102/54 261/101/53 260/99/51 67/100/52
f 69/104/56 262/103/55 261/101/53 68/102/54
f 70/106/58 263/105/57 262/103/55 69/104/56
f 71/108/60 264/107/59 263/105/57 70/106/58
f 72/110/62 265/109/61 264/107/59 71/108/60
f 73/112/64 266/111/63 265/109/61 72/110/62
f 74/114/66 267/113/65 266/111/63 73/112/64
f 63/91/43 256/92/44 267/113/65 74/114/66
f 76/34/26 30/116/68 32/115/67 75/38/29
f 77/30/23 28/117/69 30/116/68 76/34/26
f 78/26/20 26/118/70 28/117/69 77/30/23
f 79/22/18 24/119/71 26/118/70 78/26/20
f 80/18/15 22/120/72 24/119/71 79/22/18
f 81/14/12 20/121/73 22/120/72 80/18/15
f 82/9/8 18/122/74 20/121/73 81/14/12
f 83/10/9 16/123/75 18/122/74 82/9/8
f 84/50/36 38/124/76 16/123/75 83/10/9
f 85/46/34 36/125/77 38/124/76 84/50/36
f 86/42/32 34/126/78 36/125/77 85/46/34
f 75/38/29 32/115/67 34/126/78 86/42/32
f 169/129/1 193/128/1 87/127/1
f 176/133/81 168/132/80 180/131/79 152/130/79
f 159/135/1 139/134/1 87/127/1
f 145/136/1 169/129/1 87/127/1
f 124/140/82 164/139/82 168/138/80 176/137/81
f 182/144/86 128/143/85 132/142/84 178/141/83
f 171/145/1 145/136/1 87/127/1
f 148/147/88 160/146/87 164/139/82 124/140/82
f 135/148/1 159/135/1 87/127/1
f 147/149/1 171/145/1 87/127/1
f 172/151/89 156/150/89 160/146/87 148/147/88
f 186/153/91 188/152/90 128/143/85 182/144/86
f 167/154/1 147/149/1 87/127/1
f 126/156/93 144/155/92 156/150/89 172/151/89
f 192/157/1 135/148/1 87/127/1
f 143/158/1 167/154/1 87/127/1
f 150/160/94 140/159/94 144/155/92 126/156/93
f 190/162/96 184/161/95 188/152/90 186/153/91
f 163/163/1 143/158/1 87/127/1
f 174/165/97 136/164/97 140/159/94 150/160/94
f 193/128/1 192/157/1 87/127/1
f 139/134/1 163/163/1 87/127/1
f 178/141/83 132/142/84 136/164/97 174/165/97
f 152/130/79 180/131/79 184/161/95 190/162/96
f 253/169/101 252/168/100 237/167/99 236/166/98
f 254/171/103 253/169/101 236/166/98 235/170/102
f 252/168/100 251/173/105 238/172/104 237/167/99
f 255/175/107 254/171/103 235/170/102 234/174/106
f 251/173/105 250/177/109 239/176/108 238/172/104
f 244/179/111 255/175/107 234/174/106 233/178/110
f 250/177/109 249/181/113 240/180/112 239/176/108
f 245/183/115 244/179/111 233/178/110 232/182/114
f 249/181/113 248/185/117 241/184/116 240/180/112
f 246/187/119 245/183/115 232/182/114 243/186/118
f 248/185/117 247/189/121 242/188/120 241/184/116
f 247/189/121 246/187/119 243/186/118 242/188/120
f 204/193/125 125/192/124 127/191/123 205/190/122
f 205/190/122 127/191/123 131/195/127 206/194/126
f 203/199/129 129/198/128 125/197/124 204/196/125
f 206/194/126 131/195/127 130/201/131 207/200/130
f 202/203/133 133/202/132 129/198/128 203/199/129
f 207/200/130 130/201/131 134/205/135 196/204/134
f 201/207/137 137/206/136 133/202/132 202/203/133
f 196/204/134 134/205/135 138/209/139 197/208/138
f 200/211/141 141/210/140 137/206/136 201/207/137
f 197/208/138 138/209/139 142/213/143 198/212/142
f 199/215/145 146/214/144 141/210/140 200/211/141
f 198/212/142 142/213/143 146/214/144 199/215/145
f 125/217/147 68/102/54 67/100/52 127/216/146
f 127/216/146 67/100/52 66/98/50 131/218/148
f 129/219/149 69/104/56 68/102/54 125/217/147
f 131/218/148 66/98/50 65/96/48 130/220/150
f 133/221/151 70/106/58 69/104/56 129/219/149
f 130/220/150 65/96/48 64/94/46 134/222/152
f 137/223/153 71/108/60 70/106/58 133/221/151
f 134/222/152 64/94/46 63/91/43 138/224/154
f 141/225/155 72/110/62 71/108/60 137/223/153
f 138/224/154 63/91/43 74/114/66 142/226/156
f 146/227/157 73/112/64 72/110/62 141/225/155
f 142/226/156 74/114/66 73/112/64 146/227/157
f 228/231/160 173/230/160 175/229/159 229/228/158
f 229/228/158 175/229/159 179/233/162 230/232/161
f 227/237/163 177/236/163 173/235/160 228/234/160
f 230/232/161 179/233/162 183/239/165 231/238/164
f 226/241/166 181/240/166 177/236/163 227/237/163
f 231/238/164 183/239/165 187/243/168 220/242/167
f 225/245/170 185/244/169 181/240/166 226/241/166
f 220/242/167 187/243/168 191/247/172 221/246/171
f 224/249/173 189/248/173 185/244/169 225/245/170
f 221/246/171 191/247/172 195/251/175 222/250/174
f 223/253/177 194/252/176 189/248/173 224/249/173
f 222/250/174 195/251/175 194/252/176 223/253/177
f 186/153/91 108/255/90 110/254/178 190/162/96
f 182/144/86 106/256/85 108/255/90 186/153/91
f 178/141/83 104/257/179 106/256/85 182/144/86
f 174/165/97 102/258/180 104/257/179 178/141/83
f 150/160/94 100/259/94 102/258/180 174/165/97
f 126/156/93 98/260/92 100/259/94 150/160/94
f 172/151/89 96/261/181 98/260/92 126/156/93
f 148/147/88 94/262/182 96/261/181 172/151/89
f 124/140/82 92/263/82 94/262/182 148/147/88
f 176/137/81 90/264/81 92/263/82 124/140/82
f 152/130/79 88/266/79 90/265/81 176/133/81
f 190/162/96 110/254/178 88/266/79 152/130/79
f 180/131/79 89/268/79 111/267/95 184/161/95
f 168/132/80 91/269/81 89/268/79 180/131/79
f 164/139/82 93/271/82 91/270/81 168/138/80
f 160/146/87 95/272/182 93/271/82 164/139/82
f 156/150/89 97/273/181 95/272/182 160/146/87
f 144/155/92 99/274/92 97/273/181 156/150/89
f 140/159/94 101/275/94 99/274/92 144/155/92
f 136/164/97 103/276/183 101/275/94 140/159/94
f 132/142/84 105/277/184 103/276/183 136/164/97
f 128/143/85 107/278/85 105/277/184 132/142/84
f 188/152/90 109/279/90 107/278/85 128/143/85
f 184/161/95 111/267/95 109/279/90 188/152/90
f 193/128/1 88/281/1 110/280/1 192/157/1
f 169/129/1 90/282/1 88/281/1 193/128/1
f 145/136/1 92/283/1 90/282/1 169/129/1
f 171/145/1 94/284/1 92/283/1 145/136/1
f 147/149/1 96/285/1 94/284/1 171/145/1
f 167/154/1 98/286/1 96/285/1 147/149/1
f 143/158/1 100/287/1 98/286/1 167/154/1
f 163/163/1 102/288/1 100/287/1 143/158/1
f 139/134/1 104/289/1 102/288/1 163/163/1
f 159/135/1 106/290/1 104/289/1 139/134/1
f 135/148/1 108/291/1 106/290/1 159/135/1
f 192/157/1 110/280/1 108/291/1 135/148/1
f 219/295/188 120/294/187 118/293/186 208/292/185
f 218/297/190 123/296/189 120/294/187 219/295/188
f 217/299/192 122/298/191 123/296/189 218/297/190
f 216/301/194 121/300/193 122/298/191 217/299/192
f 215/303/196 119/302/195 121/300/193 216/301/194
f 214/305/198 117/304/197 119/302/195 215/303/196
f 213/307/200 115/306/199 117/304/197 214/305/198
f 212/309/202 113/308/201 115/306/199 213/307/200
f 211/313/204 112/312/203 113/311/201 212/310/202
f 210/315/206 114/314/205 112/312/203 211/313/204
f 209/317/208 116/316/207 114/314/205 210/315/206
f 208/292/185 118/293/186 116/316/207 209/317/208
f 209/317/208 207/200/130 196/204/134 208/292/185
f 210/315/206 206/194/126 207/200/130 209/317/208
f 211/313/204 205/190/122 206/194/126 210/315/206
f 212/310/202 204/193/125 205/190/122 211/313/204
f 213/307/200 203/199/129 204/196/125 212/309/202
f 214/305/198 202/203/133 203/199/129 213/307/200
f 215/303/196 201/207/137 202/203/133 214/305/198
f 216/301/194 200/211/141 201/207/137 215/303/196
f 217/299/192 199/215/145 200/211/141 216/301/194
f 218/297/190 198/212/142 199/215/145 217/299/192
f 219/295/188 197/208/138 198/212/142 218/297/190
f 208/292/185 196/204/134 197/208/138 219/295/188
f 221/246/171 162/319/210 158/318/209 220/242/167
f 222/250/174 166/320/211 162/319/210 221/246/171
f 223/253/177 170/321/212 166/320/211 222/250/174
f 224/249/173 165/322/173 170/321/212 223/253/177
f 225/245/170 161/323/169 165/322/173 224/249/173
f 226/241/166 157/324/166 161/323/169 225/245/170
f 227/237/163 153/325/163 157/324/166 226/241/166
f 228/234/160 149/326/160 153/325/163 227/237/163
f 229/228/158 151/328/213 149/327/160 228/231/160
f 230/232/161 155/329/214 151/328/213 229/228/158
f 231/238/164 154/330/215 155/329/214 230/232/161
f 220/242/167 158/318/209 154/330/215 231/238/164
f 233/178/110 118/332/217 120/331/216 232/182/114
f 234/174/106 116/333/218 118/332/217 233/178/110
f 235/170/102 114/334/219 116/333/218 234/174/106
f 236/166/98 112/335/220 114/334/219 235/170/102
f 237/167/99 113/336/221 112/335/220 236/166/98
f 238/172/104 115/337/222 113/336/221 237/167/99
f 239/176/108 117/338/223 115/337/222 238/172/104
f 240/180/112 119/339/224 117/338/223 239/176/108
f 241/184/116 121/340/225 119/339/224 240/180/112
f 242/188/120 122/341/226 121/340/225 241/184/116
f 243/186/118 123/342/227 122/341/226 242/188/120
f 232/182/114 120/331/216 123/342/227 243/186/118
f 245/183/115 105/344/229 107/343/228 244/179/111
f 246/187/119 103/345/230 105/344/229 245/183/115
f 247/189/121 101/346/231 103/345/230 246/187/119
f 248/185/117 99/347/232 101/346/231 247/189/121
f 249/181/113 97/348/233 99/347/232 248/185/117
f 250/177/109 95/349/234 97/348/233 249/181/113
f 251/173/105 93/350/235 95/349/234 250/177/109
f 252/168/100 91/351/236 93/350/235 251/173/105
f 253/169/101 89/352/237 91/351/236 252/168/100
f 254/171/103 111/353/238 89/352/237 253/169/101
f 255/175/107 109/354/239 111/353/238 254/171/103
f 244/179/111 107/343/228 109/354/239 255/175/107
f 257/93/45 158/356/241 162/355/240 256/92/44
f 258/95/47 154/357/242 158/356/241 257/93/45
f 259/97/49 155/358/243 154/357/242 258/95/47
f 260/99/51 151/359/244 155/358/243 259/97/49
f 261/101/53 149/360/245 151/359/244 260/99/51
f 262/103/55 153/361/246 149/360/245 261/101/53
f 263/105/57 157/362/247 153/361/246 262/103/55
f 264/107/59 161/363/248 157/362/247 263/105/57
f 265/109/61 165/364/249 161/363/248 264/107/59
f 266/111/63 170/365/250 165/364/249 265/109/61
f 267/113/65 166/366/251 170/365/250 266/111/63
f 256/92/44 162/355/240 166/366/251 267/113/65

